<?xml version="1.0" encoding="UTF-8" standalone="no"?>
<svg
   xmlns:dc="http://purl.org/dc/elements/1.1/"
   xmlns:cc="http://creativecommons.org/ns#"
   xmlns:rdf="http://www.w3.org/1999/02/22-rdf-syntax-ns#"
   xmlns:svg="http://www.w3.org/2000/svg"
   xmlns="http://www.w3.org/2000/svg"
   id="svg4136"
   version="1.1"
   viewBox="0 0 40 40"
   height="40px"
   width="40px">
  <metadata
     id="metadata4149">
    <rdf:RDF>
      <cc:Work
         rdf:about="">
        <dc:format>image/svg+xml</dc:format>
        <dc:type
           rdf:resource="http://purl.org/dc/dcmitype/StillImage" />
        <dc:title>circle-squares</dc:title>
      </cc:Work>
    </rdf:RDF>
  </metadata>
  <!-- Generator: Sketch 40 (33762) - http://www.bohemiancoding.com/sketch -->
  <title
     id="title4138">circle-squares</title>
  <desc
     id="desc4140">Created with Sketch.</desc>
  <defs
     id="defs4142" />
  <g
     style="fill:#ffffff;opacity:0.15"
     fill-rule="evenodd"
     fill="none"
     stroke-width="1"
     stroke="none"
     id="Page-1">
    <g
       style="fill:#ffffff"
       fill="#000000"
       id="circle-squares">
      <path
         style="fill:#ffffff"
         id="Combined-Shape"
         d="M0,0 L20,0 L20,20 L0,20 L0,0 L0,0 Z M10,17 C13.8659932,17 17,13.8659932 17,10 C17,6.13400675 13.8659932,3 10,3 C6.13400675,3 3,6.13400675 3,10 C3,13.8659932 6.13400675,17 10,17 L10,17 Z M30,17 C33.8659932,17 37,13.8659932 37,10 C37,6.13400675 33.8659932,3 30,3 C26.1340068,3 23,6.13400675 23,10 C23,13.8659932 26.1340068,17 30,17 L30,17 Z M10,37 C13.8659932,37 17,33.8659932 17,30 C17,26.1340068 13.8659932,23 10,23 C6.13400675,23 3,26.1340068 3,30 C3,33.8659932 6.13400675,37 10,37 L10,37 Z M20,20 L40,20 L40,40 L20,40 L20,20 L20,20 Z M30,37 C33.8659932,37 37,33.8659932 37,30 C37,26.1340068 33.8659932,23 30,23 C26.1340068,23 23,26.1340068 23,30 C23,33.8659932 26.1340068,37 30,37 L30,37 Z" />
    </g>
  </g>
</svg>
