<?xml version="1.0" encoding="UTF-8" standalone="no"?>
<svg
   xmlns:dc="http://purl.org/dc/elements/1.1/"
   xmlns:cc="http://creativecommons.org/ns#"
   xmlns:rdf="http://www.w3.org/1999/02/22-rdf-syntax-ns#"
   xmlns:svg="http://www.w3.org/2000/svg"
   xmlns="http://www.w3.org/2000/svg"
   xmlns:sodipodi="http://sodipodi.sourceforge.net/DTD/sodipodi-0.dtd"
   xmlns:inkscape="http://www.inkscape.org/namespaces/inkscape"
   width="153.72964"
   height="144.19411"
   viewBox="0 0 153.72964 144.1941"
   id="svg2"
   version="1.1"
   inkscape:version="0.91 r13725"
   sodipodi:docname="mic.svg">
  <sodipodi:namedview
     pagecolor="#ffffff"
     bordercolor="#666666"
     borderopacity="1"
     objecttolerance="10"
     gridtolerance="10"
     guidetolerance="10"
     inkscape:pageopacity="0"
     inkscape:pageshadow="2"
     inkscape:window-width="1440"
     inkscape:window-height="779"
     id="namedview5495"
     showgrid="false"
     inkscape:zoom="1.6366827"
     inkscape:cx="150.18386"
     inkscape:cy="120.97641"
     inkscape:window-x="0"
     inkscape:window-y="1"
     inkscape:window-maximized="1"
     inkscape:current-layer="svg2" />
  <defs
     id="defs4" />
  <metadata
     id="metadata7">
    <rdf:RDF>
      <cc:Work
         rdf:about="">
        <dc:format>image/svg+xml</dc:format>
        <dc:type
           rdf:resource="http://purl.org/dc/dcmitype/StillImage" />
        <dc:title />
      </cc:Work>
    </rdf:RDF>
  </metadata>
  <g
     transform="translate(0,-1.1454712e-5)"
     style="fill:#041641;fill-opacity:1"
     id="g5451">
    <path
       d="m 108.65174,74.13318 -0.0974,31.2883 -0.0974,31.2883 4.75917,0 4.75998,0 -0.0974,-31.2883 -0.0974,-31.2883 -4.56516,0 -4.56434,0 z m -4.75504,-9.31938 0,4.18378 0,4.18459 9.12951,0 9.1295,0 0,-4.18459 0,-4.18378 -9.1295,0 -9.12951,0 z m 47.92267,-14.28409 c 0.18677,0.0606 0.36484,0.11943 0.52339,0.17501 l 0.0586,-0.21381 -0.53247,-0.14282 -0.0495,0.18162 z m -11.21396,-2.8943 c -0.32099,0.002 -4.14345,12.98608 -3.8907,13.21586 0.11905,0.10825 13.10044,3.58197 13.38591,3.58197 0.12607,0 0.30161,-0.21398 0.39048,-0.47551 0.47824,-1.40737 3.23854,-12.07903 3.23854,-12.52077 0,-0.16583 -0.46595,-0.40937 -1.38688,-0.73224 l -3.65048,13.30667 -0.53247,-0.14281 3.65956,-13.33887 c -1.04417,-0.33857 -2.5072,-0.751 -4.46197,-1.2548 -3.50446,-0.9032 -6.54276,-1.64077 -6.75199,-1.6395 z m -17.12143,-5.64578 c -0.103,0 -0.18657,3.58266 -0.18657,7.96221 0,7.25712 0.0587,7.98008 0.66538,8.15456 0.68215,0.19617 11.44281,2.52281 11.668,2.52281 0.0686,0 0.67448,-2.01188 1.34643,-4.47023 0.67194,-2.45835 1.49187,-5.45441 1.82194,-6.65788 0.33007,-1.20346 0.52921,-2.25395 0.44248,-2.33459 -0.16993,-0.15804 -15.44663,-5.17688 -15.75766,-5.17688 z m -10.02355,-6.81142 c -0.48226,-0.006 -0.97217,3.5e-4 -1.44302,0.019 -2.94761,0.11659 -3.63801,0.27667 -4.96554,1.15573 -0.92804,0.61452 -1.86298,1.6847 -2.34863,2.68792 -0.76761,1.58568 -0.80654,2.22568 -0.80654,13.14899 l 0,11.48226 9.12951,0 9.1295,0 0,-11.42695 c 0,-10.59114 -0.0541,-11.53377 -0.7438,-12.88565 -0.93271,-1.82827 -2.66707,-3.30881 -4.53214,-3.86759 -0.59335,-0.17777 -1.97255,-0.29663 -3.41934,-0.31371 z M 61.90627,22.01848 c -0.4698,0 -6.28502,21.2903 -5.90995,21.63706 0.20425,0.18883 45.50484,9.74618 46.19567,9.74618 0.41026,0 0.54007,-1.38761 0.63483,-6.78749 l 0.11888,-6.78748 1.17885,-1.89541 1.17885,-1.89458 -21.51654,-7.00955 C 71.95267,25.17217 62.10648,22.01848 61.90627,22.01848 Z m -4.01123,-1.15656 c -0.20431,-0.004 -0.36257,0.0319 -0.43918,0.1197 -0.40386,0.46302 -5.82407,21.36548 -5.59873,21.59083 0.11578,0.11578 0.79808,0.30527 1.51649,0.42185 l 1.30599,0.21216 2.7523,-10.32074 c 1.51339,-5.67637 2.83617,-10.54129 2.9397,-10.8111 0.16944,-0.44155 -1.59122,-1.19634 -2.47657,-1.2127 z M 22.8704,0.00168 C 16.02551,0.03878 10.56856,2.44275 5.91325,7.47105 2.00037,11.69742 0,16.93995 0,22.96949 c 0,7.52146 3.10361,13.89745 8.98834,18.46704 3.05769,2.37435 5.70501,3.36827 17.17013,6.44902 10.54051,2.8323 13.23346,3.26002 15.73207,2.49722 3.3067,-1.0095 6.2881,-3.59632 7.61879,-6.61165 0.44472,-1.00774 2.1652,-6.8872 3.82302,-13.06479 3.43277,-12.79172 3.67259,-14.8661 2.10922,-18.22351 C 54.30801,10.04846 52.50044,7.98018 50.49254,6.81888 49.63012,6.32009 43.97758,4.58277 37.89664,2.94716 27.34601,0.10931 26.69045,-0.01908 22.8704,0.00168 Z m 85.78134,137.42172 -0.0974,3.38535 -0.0974,3.38536 4.75917,0 4.75998,0 -0.0974,-3.38536 -0.0974,-3.38535 -4.56516,0 -4.56434,0 z"
       style="fill:#041641;fill-opacity:1"
       id="path4323-6" />
  </g>
</svg>
