<svg version="1" xmlns="http://www.w3.org/2000/svg" width="682.667" height="682.667" viewBox="0 0 512.000000 512.000000"><path d="M229 1.5c-20.7 2.3-42.3 7.3-60.5 13.9-14.3 5.3-40.2 18.3-52.5 26.3C40.8 91.1-3.1 176.1.3 265.5c1.5 37.4 9.6 69.3 26.2 103 13.3 27.1 28.4 48.4 48.7 68.5 92.7 92.3 239.4 100.2 341.3 18.3 29-23.3 51.9-52 68.5-85.8 12.6-25.6 19.6-47.5 24.2-75.5 2.9-18.2 3.2-55.5.5-73-3.6-22.9-8.9-42.4-16.6-61.5-4.8-11.7-20.6-40.6-28-51-37.3-53.1-94.7-90.4-159-103.5C282.5.2 252.8-1.1 229 1.5zm91 115V141h-13.7l-13.8.1 3.5 2.6c1.9 1.5 7 6.2 11.2 10.4 6 6.1 8.6 9.7 11.6 16.1 5.2 10.9 6.6 17.1 6.5 29.8-.1 24.1-9.7 42-27.6 51.6l-5.8 3.1 4.1 2.8c6.5 4.5 19.2 18.6 22.7 25.1 4.7 8.9 6.6 17.3 6.6 29.4.1 5.8-.3 12.2-.7 14.2l-.7 3.8h11.4c19.5 0 33.2 4.9 45.3 16.2 14.1 13.2 18.7 32 15.9 65l-.7 8.8h-41.6l.6-11c.6-12.6-.7-18.6-4.7-22.3-3.8-3.6-8.2-4.6-20.1-4.9l-10.5-.3-.3 17.7-.2 17.8h-37l-.2-17.8-.3-17.7-83.8-.3-83.7-.2.2-25.8.3-25.7 69-.6c60.5-.5 69.7-.8 75-2.3 16.6-4.7 23.3-14.5 22.3-32.5-.9-15.1-9.3-24.6-26.3-29.7-5.4-1.6-12.5-1.8-72.7-2.1l-66.8-.4V210h67.8c71.9 0 75.9-.3 85-4.9 8.4-4.3 13.3-13.8 13.1-25.5-.2-15.1-8.6-26.3-24.8-32.8l-5.6-2.3-67.7-.3-67.8-.3V92h205v24.5z"/></svg>